<mxfile host="app.diagrams.net" agent="Mozilla/5.0 (X11; Linux x86_64) AppleWebKit/537.36 (KHTML, like Gecko) Chrome/126.0.0.0 Safari/537.36" version="24.7.16">
  <diagram name="Página-1" id="6xMemdAN0S8tyUVLm7J9">
    <mxGraphModel dx="993" dy="905" grid="1" gridSize="10" guides="1" tooltips="1" connect="1" arrows="1" fold="1" page="1" pageScale="1" pageWidth="827" pageHeight="1169" math="0" shadow="0">
      <root>
        <mxCell id="0" />
        <mxCell id="1" parent="0" />
        <mxCell id="DE_x349wFjhOzu7SgR72-1" value="SUCURSAL" style="rounded=0;whiteSpace=wrap;html=1;" vertex="1" parent="1">
          <mxGeometry x="170" y="260" width="120" height="60" as="geometry" />
        </mxCell>
        <mxCell id="DE_x349wFjhOzu7SgR72-2" value="EMPLEADO" style="whiteSpace=wrap;html=1;" vertex="1" parent="1">
          <mxGeometry x="530" y="258" width="120" height="60" as="geometry" />
        </mxCell>
        <mxCell id="DE_x349wFjhOzu7SgR72-3" value="REVISTAS" style="whiteSpace=wrap;html=1;" vertex="1" parent="1">
          <mxGeometry x="180" y="547" width="120" height="60" as="geometry" />
        </mxCell>
        <mxCell id="DE_x349wFjhOzu7SgR72-4" value="domiclio" style="text;html=1;align=center;verticalAlign=middle;resizable=0;points=[];autosize=1;strokeColor=none;fillColor=none;" vertex="1" parent="1">
          <mxGeometry x="145" y="198" width="70" height="30" as="geometry" />
        </mxCell>
        <mxCell id="DE_x349wFjhOzu7SgR72-5" value="telefono" style="text;html=1;align=center;verticalAlign=middle;resizable=0;points=[];autosize=1;strokeColor=none;fillColor=none;" vertex="1" parent="1">
          <mxGeometry x="245" y="198" width="70" height="30" as="geometry" />
        </mxCell>
        <mxCell id="DE_x349wFjhOzu7SgR72-6" value="cod_sucursal" style="text;html=1;align=center;verticalAlign=middle;resizable=0;points=[];autosize=1;strokeColor=none;fillColor=none;" vertex="1" parent="1">
          <mxGeometry x="30" y="240" width="90" height="30" as="geometry" />
        </mxCell>
        <mxCell id="DE_x349wFjhOzu7SgR72-7" value="dni" style="text;html=1;align=center;verticalAlign=middle;resizable=0;points=[];autosize=1;strokeColor=none;fillColor=none;" vertex="1" parent="1">
          <mxGeometry x="610" y="188" width="40" height="30" as="geometry" />
        </mxCell>
        <mxCell id="DE_x349wFjhOzu7SgR72-8" value="telefono" style="text;html=1;align=center;verticalAlign=middle;resizable=0;points=[];autosize=1;strokeColor=none;fillColor=none;" vertex="1" parent="1">
          <mxGeometry x="680" y="230" width="70" height="30" as="geometry" />
        </mxCell>
        <mxCell id="DE_x349wFjhOzu7SgR72-9" value="" style="endArrow=none;html=1;rounded=0;entryX=0;entryY=0.5;entryDx=0;entryDy=0;exitX=1;exitY=0.5;exitDx=0;exitDy=0;" edge="1" parent="1" source="DE_x349wFjhOzu7SgR72-10" target="DE_x349wFjhOzu7SgR72-2">
          <mxGeometry width="50" height="50" relative="1" as="geometry">
            <mxPoint x="380" y="400" as="sourcePoint" />
            <mxPoint x="430" y="350" as="targetPoint" />
          </mxGeometry>
        </mxCell>
        <mxCell id="DE_x349wFjhOzu7SgR72-11" value="" style="endArrow=none;html=1;rounded=0;entryX=0;entryY=0.5;entryDx=0;entryDy=0;exitX=1;exitY=0.5;exitDx=0;exitDy=0;" edge="1" parent="1" source="DE_x349wFjhOzu7SgR72-1" target="DE_x349wFjhOzu7SgR72-10">
          <mxGeometry width="50" height="50" relative="1" as="geometry">
            <mxPoint x="290" y="290" as="sourcePoint" />
            <mxPoint x="480" y="288" as="targetPoint" />
          </mxGeometry>
        </mxCell>
        <mxCell id="DE_x349wFjhOzu7SgR72-10" value="" style="rhombus;whiteSpace=wrap;html=1;" vertex="1" parent="1">
          <mxGeometry x="370" y="270" width="40" height="40" as="geometry" />
        </mxCell>
        <mxCell id="DE_x349wFjhOzu7SgR72-12" value="(1,1)" style="text;html=1;align=center;verticalAlign=middle;resizable=0;points=[];autosize=1;strokeColor=none;fillColor=none;" vertex="1" parent="1">
          <mxGeometry x="290" y="260" width="50" height="30" as="geometry" />
        </mxCell>
        <mxCell id="DE_x349wFjhOzu7SgR72-13" value="(1,n)" style="text;html=1;align=center;verticalAlign=middle;resizable=0;points=[];autosize=1;strokeColor=none;fillColor=none;" vertex="1" parent="1">
          <mxGeometry x="490" y="258" width="50" height="30" as="geometry" />
        </mxCell>
        <mxCell id="DE_x349wFjhOzu7SgR72-14" value="" style="endArrow=none;html=1;rounded=0;exitX=0.408;exitY=-0.017;exitDx=0;exitDy=0;exitPerimeter=0;entryX=0.5;entryY=1;entryDx=0;entryDy=0;" edge="1" parent="1" source="DE_x349wFjhOzu7SgR72-15" target="DE_x349wFjhOzu7SgR72-1">
          <mxGeometry width="50" height="50" relative="1" as="geometry">
            <mxPoint x="380" y="400" as="sourcePoint" />
            <mxPoint x="430" y="350" as="targetPoint" />
          </mxGeometry>
        </mxCell>
        <mxCell id="DE_x349wFjhOzu7SgR72-16" value="" style="endArrow=none;html=1;rounded=0;exitX=0.408;exitY=-0.017;exitDx=0;exitDy=0;exitPerimeter=0;entryX=0.5;entryY=1;entryDx=0;entryDy=0;" edge="1" parent="1" source="DE_x349wFjhOzu7SgR72-3" target="DE_x349wFjhOzu7SgR72-15">
          <mxGeometry width="50" height="50" relative="1" as="geometry">
            <mxPoint x="219" y="429" as="sourcePoint" />
            <mxPoint x="230" y="320" as="targetPoint" />
          </mxGeometry>
        </mxCell>
        <mxCell id="DE_x349wFjhOzu7SgR72-15" value="" style="rhombus;whiteSpace=wrap;html=1;" vertex="1" parent="1">
          <mxGeometry x="210" y="380" width="40" height="40" as="geometry" />
        </mxCell>
        <mxCell id="DE_x349wFjhOzu7SgR72-17" value="(1,n)" style="text;html=1;align=center;verticalAlign=middle;resizable=0;points=[];autosize=1;strokeColor=none;fillColor=none;" vertex="1" parent="1">
          <mxGeometry x="185" y="515" width="50" height="30" as="geometry" />
        </mxCell>
        <mxCell id="DE_x349wFjhOzu7SgR72-18" value="(1,1)" style="text;html=1;align=center;verticalAlign=middle;resizable=0;points=[];autosize=1;strokeColor=none;fillColor=none;" vertex="1" parent="1">
          <mxGeometry x="185" y="318" width="50" height="30" as="geometry" />
        </mxCell>
        <mxCell id="DE_x349wFjhOzu7SgR72-19" value="titulo" style="text;html=1;align=center;verticalAlign=middle;resizable=0;points=[];autosize=1;strokeColor=none;fillColor=none;" vertex="1" parent="1">
          <mxGeometry x="145" y="635" width="50" height="30" as="geometry" />
        </mxCell>
        <mxCell id="DE_x349wFjhOzu7SgR72-20" value="nºregistro" style="text;html=1;align=center;verticalAlign=middle;resizable=0;points=[];autosize=1;strokeColor=none;fillColor=none;" vertex="1" parent="1">
          <mxGeometry x="75" y="555" width="70" height="30" as="geometry" />
        </mxCell>
        <mxCell id="DE_x349wFjhOzu7SgR72-21" value="periocidad" style="text;html=1;align=center;verticalAlign=middle;resizable=0;points=[];autosize=1;strokeColor=none;fillColor=none;" vertex="1" parent="1">
          <mxGeometry x="270" y="635" width="80" height="30" as="geometry" />
        </mxCell>
        <mxCell id="DE_x349wFjhOzu7SgR72-22" value="tipo" style="text;html=1;align=center;verticalAlign=middle;resizable=0;points=[];autosize=1;strokeColor=none;fillColor=none;" vertex="1" parent="1">
          <mxGeometry x="105" y="605" width="40" height="30" as="geometry" />
        </mxCell>
        <mxCell id="DE_x349wFjhOzu7SgR72-23" value="fecha" style="text;html=1;align=center;verticalAlign=middle;resizable=0;points=[];autosize=1;strokeColor=none;fillColor=none;" vertex="1" parent="1">
          <mxGeometry x="335" y="595" width="50" height="30" as="geometry" />
        </mxCell>
        <mxCell id="DE_x349wFjhOzu7SgR72-24" value="nº_paginas" style="text;html=1;align=center;verticalAlign=middle;resizable=0;points=[];autosize=1;strokeColor=none;fillColor=none;" vertex="1" parent="1">
          <mxGeometry x="315" y="557" width="80" height="30" as="geometry" />
        </mxCell>
        <mxCell id="DE_x349wFjhOzu7SgR72-25" value="nº_ejemplares" style="text;html=1;align=center;verticalAlign=middle;resizable=0;points=[];autosize=1;strokeColor=none;fillColor=none;" vertex="1" parent="1">
          <mxGeometry x="260" y="505" width="100" height="30" as="geometry" />
        </mxCell>
        <mxCell id="DE_x349wFjhOzu7SgR72-26" value="cod_empleado" style="text;html=1;align=center;verticalAlign=middle;resizable=0;points=[];autosize=1;strokeColor=none;fillColor=none;" vertex="1" parent="1">
          <mxGeometry x="500" y="178" width="100" height="30" as="geometry" />
        </mxCell>
        <mxCell id="DE_x349wFjhOzu7SgR72-27" value="datos_personales..." style="text;html=1;align=center;verticalAlign=middle;resizable=0;points=[];autosize=1;strokeColor=none;fillColor=none;" vertex="1" parent="1">
          <mxGeometry x="680" y="280" width="130" height="30" as="geometry" />
        </mxCell>
        <mxCell id="DE_x349wFjhOzu7SgR72-28" value="Empleado-Sucursal" style="whiteSpace=wrap;html=1;" vertex="1" parent="1">
          <mxGeometry x="455" y="440" width="120" height="60" as="geometry" />
        </mxCell>
        <mxCell id="DE_x349wFjhOzu7SgR72-29" value="" style="endArrow=none;html=1;rounded=0;entryX=0.417;entryY=0.967;entryDx=0;entryDy=0;entryPerimeter=0;" edge="1" parent="1" target="DE_x349wFjhOzu7SgR72-2">
          <mxGeometry width="50" height="50" relative="1" as="geometry">
            <mxPoint x="580" y="360" as="sourcePoint" />
            <mxPoint x="430" y="350" as="targetPoint" />
          </mxGeometry>
        </mxCell>
        <mxCell id="DE_x349wFjhOzu7SgR72-31" value="" style="verticalLabelPosition=bottom;verticalAlign=top;html=1;shape=mxgraph.basic.acute_triangle;dx=0.5;direction=west;" vertex="1" parent="1">
          <mxGeometry x="560" y="348" width="40" height="32" as="geometry" />
        </mxCell>
        <mxCell id="DE_x349wFjhOzu7SgR72-32" value="" style="endArrow=none;html=1;rounded=0;entryX=0;entryY=0;entryDx=20;entryDy=0;entryPerimeter=0;exitX=0.433;exitY=-0.033;exitDx=0;exitDy=0;exitPerimeter=0;" edge="1" parent="1" source="DE_x349wFjhOzu7SgR72-28" target="DE_x349wFjhOzu7SgR72-31">
          <mxGeometry width="50" height="50" relative="1" as="geometry">
            <mxPoint x="380" y="400" as="sourcePoint" />
            <mxPoint x="430" y="350" as="targetPoint" />
          </mxGeometry>
        </mxCell>
        <mxCell id="DE_x349wFjhOzu7SgR72-33" value="" style="endArrow=none;html=1;rounded=0;exitX=0.5;exitY=0;exitDx=0;exitDy=0;" edge="1" parent="1" source="DE_x349wFjhOzu7SgR72-34">
          <mxGeometry width="50" height="50" relative="1" as="geometry">
            <mxPoint x="700" y="440" as="sourcePoint" />
            <mxPoint x="580" y="380" as="targetPoint" />
          </mxGeometry>
        </mxCell>
        <mxCell id="DE_x349wFjhOzu7SgR72-34" value="Periodista" style="whiteSpace=wrap;html=1;" vertex="1" parent="1">
          <mxGeometry x="590" y="445" width="120" height="60" as="geometry" />
        </mxCell>
        <mxCell id="DE_x349wFjhOzu7SgR72-35" value="" style="shape=xor;whiteSpace=wrap;html=1;direction=south;fillColor=#000000;" vertex="1" parent="1">
          <mxGeometry x="550" y="390" width="60" height="10" as="geometry" />
        </mxCell>
        <mxCell id="DE_x349wFjhOzu7SgR72-36" value="" style="endArrow=none;html=1;rounded=0;exitX=0.033;exitY=0.133;exitDx=0;exitDy=0;exitPerimeter=0;" edge="1" parent="1" source="DE_x349wFjhOzu7SgR72-37" target="DE_x349wFjhOzu7SgR72-1">
          <mxGeometry width="50" height="50" relative="1" as="geometry">
            <mxPoint x="420" y="470" as="sourcePoint" />
            <mxPoint x="470" y="420" as="targetPoint" />
          </mxGeometry>
        </mxCell>
        <mxCell id="DE_x349wFjhOzu7SgR72-39" value="" style="endArrow=none;html=1;rounded=0;exitX=0.033;exitY=0.133;exitDx=0;exitDy=0;exitPerimeter=0;" edge="1" parent="1" source="DE_x349wFjhOzu7SgR72-28" target="DE_x349wFjhOzu7SgR72-37">
          <mxGeometry width="50" height="50" relative="1" as="geometry">
            <mxPoint x="459" y="448" as="sourcePoint" />
            <mxPoint x="273" y="320" as="targetPoint" />
          </mxGeometry>
        </mxCell>
        <mxCell id="DE_x349wFjhOzu7SgR72-37" value="" style="rhombus;whiteSpace=wrap;html=1;direction=west;" vertex="1" parent="1">
          <mxGeometry x="350" y="380" width="50" height="48" as="geometry" />
        </mxCell>
        <mxCell id="DE_x349wFjhOzu7SgR72-40" value="" style="endArrow=none;html=1;rounded=0;exitX=1;exitY=0.5;exitDx=0;exitDy=0;entryX=0;entryY=0.5;entryDx=0;entryDy=0;" edge="1" parent="1" target="DE_x349wFjhOzu7SgR72-42">
          <mxGeometry width="50" height="50" relative="1" as="geometry">
            <mxPoint x="290" y="768.5" as="sourcePoint" />
            <mxPoint x="600" y="771.5" as="targetPoint" />
          </mxGeometry>
        </mxCell>
        <mxCell id="DE_x349wFjhOzu7SgR72-42" value="" style="rhombus;whiteSpace=wrap;html=1;" vertex="1" parent="1">
          <mxGeometry x="610" y="748.5" width="40" height="43" as="geometry" />
        </mxCell>
        <mxCell id="DE_x349wFjhOzu7SgR72-43" value="" style="endArrow=none;html=1;rounded=0;entryX=0.333;entryY=1.083;entryDx=0;entryDy=0;entryPerimeter=0;exitX=0.5;exitY=0;exitDx=0;exitDy=0;" edge="1" parent="1" source="DE_x349wFjhOzu7SgR72-42" target="DE_x349wFjhOzu7SgR72-34">
          <mxGeometry width="50" height="50" relative="1" as="geometry">
            <mxPoint x="630" y="550" as="sourcePoint" />
            <mxPoint x="470" y="420" as="targetPoint" />
          </mxGeometry>
        </mxCell>
        <mxCell id="DE_x349wFjhOzu7SgR72-44" value="especialidad" style="text;html=1;align=center;verticalAlign=middle;resizable=0;points=[];autosize=1;strokeColor=none;fillColor=none;" vertex="1" parent="1">
          <mxGeometry x="740" y="470" width="90" height="30" as="geometry" />
        </mxCell>
        <mxCell id="DE_x349wFjhOzu7SgR72-45" value="" style="endArrow=none;html=1;rounded=0;entryX=0.433;entryY=1;entryDx=0;entryDy=0;entryPerimeter=0;exitX=0.55;exitY=0.014;exitDx=0;exitDy=0;exitPerimeter=0;" edge="1" parent="1" source="DE_x349wFjhOzu7SgR72-49" target="DE_x349wFjhOzu7SgR72-3">
          <mxGeometry width="50" height="50" relative="1" as="geometry">
            <mxPoint x="230" y="660" as="sourcePoint" />
            <mxPoint x="470" y="660" as="targetPoint" />
          </mxGeometry>
        </mxCell>
        <mxCell id="DE_x349wFjhOzu7SgR72-47" value="Ejemplares" style="whiteSpace=wrap;html=1;" vertex="1" parent="1">
          <mxGeometry x="160" y="740" width="120" height="60" as="geometry" />
        </mxCell>
        <mxCell id="DE_x349wFjhOzu7SgR72-48" value="" style="whiteSpace=wrap;html=1;fillColor=none;" vertex="1" parent="1">
          <mxGeometry x="150" y="735" width="140" height="70" as="geometry" />
        </mxCell>
        <mxCell id="DE_x349wFjhOzu7SgR72-50" value="" style="endArrow=none;html=1;rounded=0;entryX=0.433;entryY=1;entryDx=0;entryDy=0;entryPerimeter=0;exitX=0.55;exitY=0.014;exitDx=0;exitDy=0;exitPerimeter=0;" edge="1" parent="1" source="DE_x349wFjhOzu7SgR72-48" target="DE_x349wFjhOzu7SgR72-49">
          <mxGeometry width="50" height="50" relative="1" as="geometry">
            <mxPoint x="227" y="736" as="sourcePoint" />
            <mxPoint x="232" y="607" as="targetPoint" />
          </mxGeometry>
        </mxCell>
        <mxCell id="DE_x349wFjhOzu7SgR72-49" value="ID&lt;div&gt;&lt;br&gt;&lt;/div&gt;" style="rhombus;whiteSpace=wrap;html=1;" vertex="1" parent="1">
          <mxGeometry x="205" y="650" width="50" height="50" as="geometry" />
        </mxCell>
        <mxCell id="DE_x349wFjhOzu7SgR72-51" value="(1,n)" style="text;html=1;align=center;verticalAlign=middle;resizable=0;points=[];autosize=1;strokeColor=none;fillColor=none;" vertex="1" parent="1">
          <mxGeometry x="220" y="705" width="50" height="30" as="geometry" />
        </mxCell>
        <mxCell id="DE_x349wFjhOzu7SgR72-52" value="(1,1)" style="text;html=1;align=center;verticalAlign=middle;resizable=0;points=[];autosize=1;strokeColor=none;fillColor=none;" vertex="1" parent="1">
          <mxGeometry x="220" y="605" width="50" height="30" as="geometry" />
        </mxCell>
        <mxCell id="DE_x349wFjhOzu7SgR72-53" value="tiene&lt;div&gt;&lt;br&gt;&lt;/div&gt;" style="triangle;whiteSpace=wrap;html=1;direction=south;" vertex="1" parent="1">
          <mxGeometry x="205" y="675" width="50" height="30" as="geometry" />
        </mxCell>
        <mxCell id="DE_x349wFjhOzu7SgR72-55" value="(1,n)" style="text;html=1;align=center;verticalAlign=middle;resizable=0;points=[];autosize=1;strokeColor=none;fillColor=none;" vertex="1" parent="1">
          <mxGeometry x="280" y="761.5" width="50" height="30" as="geometry" />
        </mxCell>
        <mxCell id="DE_x349wFjhOzu7SgR72-56" value="(1,n)" style="text;html=1;align=center;verticalAlign=middle;resizable=0;points=[];autosize=1;strokeColor=none;fillColor=none;" vertex="1" parent="1">
          <mxGeometry x="585" y="508" width="50" height="30" as="geometry" />
        </mxCell>
      </root>
    </mxGraphModel>
  </diagram>
</mxfile>
